<svg xmlns="http://www.w3.org/2000/svg" width="1600" height="900" viewBox="0 0 1600 900" font-family="Inter,system-ui,Arial"><rect width="1600" height="900" fill="#0a1119"/><rect x="300" y="54" width="936" height="846" fill="#08121d"/><line x1="300" y1="54" x2="300" y2="900" stroke="#0e1d2b"/><line x1="370" y1="54" x2="370" y2="900" stroke="#0e1d2b"/><line x1="440" y1="54" x2="440" y2="900" stroke="#0e1d2b"/><line x1="510" y1="54" x2="510" y2="900" stroke="#0e1d2b"/><line x1="580" y1="54" x2="580" y2="900" stroke="#0e1d2b"/><line x1="650" y1="54" x2="650" y2="900" stroke="#0e1d2b"/><line x1="720" y1="54" x2="720" y2="900" stroke="#0e1d2b"/><line x1="790" y1="54" x2="790" y2="900" stroke="#0e1d2b"/><line x1="860" y1="54" x2="860" y2="900" stroke="#0e1d2b"/><line x1="930" y1="54" x2="930" y2="900" stroke="#0e1d2b"/><line x1="1000" y1="54" x2="1000" y2="900" stroke="#0e1d2b"/><line x1="1070" y1="54" x2="1070" y2="900" stroke="#0e1d2b"/><line x1="1140" y1="54" x2="1140" y2="900" stroke="#0e1d2b"/><line x1="1210" y1="54" x2="1210" y2="900" stroke="#0e1d2b"/><line x1="300" y1="54" x2="1236" y2="54" stroke="#0e1d2b"/><line x1="300" y1="124" x2="1236" y2="124" stroke="#0e1d2b"/><line x1="300" y1="194" x2="1236" y2="194" stroke="#0e1d2b"/><line x1="300" y1="264" x2="1236" y2="264" stroke="#0e1d2b"/><line x1="300" y1="334" x2="1236" y2="334" stroke="#0e1d2b"/><line x1="300" y1="404" x2="1236" y2="404" stroke="#0e1d2b"/><line x1="300" y1="474" x2="1236" y2="474" stroke="#0e1d2b"/><line x1="300" y1="544" x2="1236" y2="544" stroke="#0e1d2b"/><line x1="300" y1="614" x2="1236" y2="614" stroke="#0e1d2b"/><line x1="300" y1="684" x2="1236" y2="684" stroke="#0e1d2b"/><line x1="300" y1="754" x2="1236" y2="754" stroke="#0e1d2b"/><line x1="300" y1="824" x2="1236" y2="824" stroke="#0e1d2b"/><circle cx="760" cy="430" r="150" fill="none" stroke="rgba(224,88,74,.55)" stroke-width="1.5"/><circle cx="880" cy="490" r="90" fill="none" stroke="rgba(95,176,230,.55)" stroke-width="1.4" stroke-dasharray="6 5"/><svg x="742" y="412" xmlns="http://www.w3.org/2000/svg" version="1.2" baseProfile="tiny" width="54.72" height="54.72" viewBox="24 24 152 152"><path d="M 100,28 L172,100 100,172 28,100 100,28 Z" stroke-width="4" stroke="black" fill="rgb(255,128,128)" fill-opacity="1" ></path><text x="100" y="103" text-anchor="middle" font-size="39" font-family="Arial" font-weight="bold" dominant-baseline="middle" stroke-width="3" stroke="none" fill="black" >CBT</text></svg><svg x="690" y="470" xmlns="http://www.w3.org/2000/svg" version="1.2" baseProfile="tiny" width="45.6" height="45.6" viewBox="24 24 152 152"><path d="M 100,28 L172,100 100,172 28,100 100,28 Z" stroke-width="4" stroke="black" fill="rgb(255,128,128)" fill-opacity="1" ></path><circle cx="100" cy="100" r="15" stroke-width="3" stroke="black" fill="black" ></circle></svg><svg x="820" y="370" xmlns="http://www.w3.org/2000/svg" version="1.2" baseProfile="tiny" width="35.4" height="41.4" viewBox="41 16 118 138"><path d="M 45,150 L45,70 100,20 155,70 155,150" stroke-width="4" stroke="black" fill="rgb(255,128,128)" fill-opacity="1" ></path><text x="100" y="103" text-anchor="middle" font-size="45" font-family="Arial" font-weight="bold" dominant-baseline="middle" stroke-width="3" stroke="none" fill="black" >R</text></svg><svg x="890" y="480" xmlns="http://www.w3.org/2000/svg" version="1.2" baseProfile="tiny" width="38.4" height="38.4" viewBox="36 36 128 128"><circle cx="100" cy="100" r="60" stroke-width="4" stroke="black" fill="rgb(128,224,255)" fill-opacity="1" ></circle><text x="100" y="103" text-anchor="middle" font-size="45" font-family="Arial" font-weight="bold" dominant-baseline="middle" stroke-width="3" stroke="none" fill="black" >BB</text></svg><svg x="960" y="400" xmlns="http://www.w3.org/2000/svg" version="1.2" baseProfile="tiny" width="37.76" height="40.96" viewBox="41 26 118 128"><path d="M 155,150 C 155,50 115,30 100,30 85,30 45,50 45,150" stroke-width="4" stroke="black" fill="rgb(128,224,255)" fill-opacity="1" ></path><path d="m 99.2,58.2 c -3,0.8 -2.5,5.8 -2.5,5.8 l -0.3,16 -37.2,36.5 1.3,4.6 L 96.7,96.6 97,128.6 l -8.5,8.2 0,4.6 9.3,-4.2 c 0.7,0.6 1.8,1.7 1.8,1.7 0,0 1.2,-1.1 1.9,-1.7 l 9.3,4.2 0,-4.6 -8.5,-8.2 0.3,-32 36.2,24.5 1.3,-4.6 -37.2,-36.5 -0.3,-16 c 0,0 0.5,-5 -2.5,-5.8 -0.4,-0.1 -0.7,-0.1 -1.1,0 z" stroke-width="3" stroke="none" fill="black" ></path></svg><rect x="0" y="54" width="300" height="846" fill="#0e1822"/><line x1="300" y1="54" x2="300" y2="900" stroke="#1b3247"/><text x="16" y="76" fill="#8fa8c0" font-size="10.5" font-weight="700" letter-spacing="2" font-family="Oswald,Inter">VIEW</text><rect x="16" y="86" width="130" height="30" rx="6" fill="#11202e" stroke="#1d3447"/><text x="81" y="105" text-anchor="middle" fill="#bcd2e4" font-size="11.5" font-weight="600">Recenter</text><rect x="154" y="86" width="130" height="30" rx="6" fill="#11202e" stroke="#1d3447"/><text x="219" y="105" text-anchor="middle" fill="#bcd2e4" font-size="11.5" font-weight="600">Reset Scenario</text><text x="16" y="126" fill="#8fa8c0" font-size="10.5" font-weight="700" letter-spacing="2" font-family="Oswald,Inter">HIGHLIGHT</text><rect x="16" y="136" width="130" height="30" rx="6" fill="#18466a" stroke="#4bb8ff"/><text x="81" y="155" text-anchor="middle" fill="#eaf6ff" font-size="11.5" font-weight="600">High Payoff</text><rect x="154" y="136" width="130" height="30" rx="6" fill="#11202e" stroke="#1d3447"/><text x="219" y="155" text-anchor="middle" fill="#bcd2e4" font-size="11.5" font-weight="600">High Risk</text><rect x="16" y="174" width="130" height="30" rx="6" fill="#11202e" stroke="#1d3447"/><text x="81" y="193" text-anchor="middle" fill="#bcd2e4" font-size="11.5" font-weight="600">Contrast</text><rect x="154" y="174" width="130" height="30" rx="6" fill="#11202e" stroke="#1d3447"/><text x="219" y="193" text-anchor="middle" fill="#bcd2e4" font-size="11.5" font-weight="600">Legend</text><text x="16" y="218" fill="#8fa8c0" font-size="10.5" font-weight="700" letter-spacing="2" font-family="Oswald,Inter">SESSION</text><rect x="16" y="228" width="130" height="30" rx="6" fill="#11202e" stroke="#1d3447"/><text x="81" y="247" text-anchor="middle" fill="#bcd2e4" font-size="11.5" font-weight="600">Strike Selected</text><rect x="154" y="228" width="130" height="30" rx="6" fill="#11202e" stroke="#1d3447"/><text x="219" y="247" text-anchor="middle" fill="#bcd2e4" font-size="11.5" font-weight="600">Summary</text><text x="16" y="274" fill="#8fa8c0" font-size="10.5" font-weight="700" letter-spacing="2" font-family="Oswald,Inter">DATA</text><rect x="16" y="284" width="130" height="30" rx="6" fill="#11202e" stroke="#1d3447"/><text x="81" y="303" text-anchor="middle" fill="#bcd2e4" font-size="11.5" font-weight="600">Export JSON</text><rect x="154" y="284" width="130" height="30" rx="6" fill="#11202e" stroke="#1d3447"/><text x="219" y="303" text-anchor="middle" fill="#bcd2e4" font-size="11.5" font-weight="600">Import JSON</text><text x="16" y="334" fill="#8fa8c0" font-size="10.5" font-weight="700" letter-spacing="2" font-family="Oswald,Inter">LEGEND</text><rect x="16" y="341" width="11" height="11" rx="2" fill="#5fb0e6"/><text x="34" y="350" fill="#dfeaf5" font-size="11">Friend</text><rect x="16" y="363" width="11" height="11" rx="2" fill="#e0584a"/><text x="34" y="372" fill="#dfeaf5" font-size="11">Hostile</text><rect x="16" y="385" width="11" height="11" rx="2" fill="#4bb8ff"/><text x="34" y="394" fill="#dfeaf5" font-size="11">High payoff</text><rect x="16" y="407" width="11" height="11" rx="2" fill="#ff8a65"/><text x="34" y="416" fill="#dfeaf5" font-size="11">High risk</text><rect x="1236" y="54" width="364" height="846" fill="#0e1822"/><line x1="1236" y1="54" x2="1236" y2="900" stroke="#1b3247"/><text x="1252" y="76" fill="#8fa8c0" font-size="10.5" font-weight="700" letter-spacing="2" font-family="Oswald,Inter">FORCE STATUS</text><text x="1252" y="104" fill="#5fb0e6" font-size="12" font-weight="700">BLUE</text><text x="1584" y="104" text-anchor="end" fill="#8fa8c0" font-size="10.5">104/104 · 156 pts</text><rect x="1252" y="112" width="332" height="6" rx="3" fill="#15283a"/><rect x="1252" y="112" width="285.52" height="6" rx="3" fill="#5fb0e6"/><text x="1252" y="148" fill="#e0584a" font-size="12" font-weight="700">RED</text><text x="1584" y="148" text-anchor="end" fill="#8fa8c0" font-size="10.5">120/120 · 350 pts</text><rect x="1252" y="156" width="332" height="6" rx="3" fill="#15283a"/><rect x="1252" y="156" width="332" height="6" rx="3" fill="#e0584a"/><text x="1252" y="184" fill="#8fa8c0" font-size="10.5" font-weight="700" letter-spacing="2" font-family="Oswald,Inter">SEARCH</text><rect x="1252" y="194" width="274" height="30" rx="6" fill="#0b1620" stroke="#1d3447"/><text x="1262" y="213" fill="#5e7d92" font-size="11">Find by ID or name</text><rect x="1534" y="194" width="50" height="30" rx="6" fill="#11202e" stroke="#1d3447"/><text x="1559" y="213" text-anchor="middle" fill="#bcd2e4" font-size="11.5" font-weight="600">Find</text><text x="1252" y="240" fill="#8fa8c0" font-size="10.5" font-weight="700" letter-spacing="2" font-family="Oswald,Inter">COURSE OF ACTION</text><rect x="1252" y="252" width="332" height="30" rx="6" fill="#11202e" stroke="#1d3447"/><text x="1418" y="271" text-anchor="middle" fill="#bcd2e4" font-size="11.5" font-weight="600">Generate COA</text><text x="1252" y="296" fill="#8fa8c0" font-size="10.5">Target (Red)</text><rect x="1252" y="304" width="332" height="30" rx="6" fill="#0b1620" stroke="#1d3447"/><text x="1262" y="323" fill="#bcd2e4" font-size="11">CMC Joint Ops — val 84, hp 100</text><text x="1252" y="350" fill="#8fa8c0" font-size="10.5" font-weight="700" letter-spacing="2" font-family="Oswald,Inter">MONTE CARLO</text><rect x="1252" y="362" width="96" height="30" rx="6" fill="#11202e" stroke="#1d3447"/><text x="1300" y="381" text-anchor="middle" fill="#bcd2e4" font-size="11.5" font-weight="600">Quick</text><rect x="1356" y="362" width="96" height="30" rx="6" fill="#18466a" stroke="#4bb8ff"/><text x="1404" y="381" text-anchor="middle" fill="#eaf6ff" font-size="11.5" font-weight="600">Balanced</text><rect x="1460" y="362" width="96" height="30" rx="6" fill="#11202e" stroke="#1d3447"/><text x="1508" y="381" text-anchor="middle" fill="#bcd2e4" font-size="11.5" font-weight="600">High Conf</text><rect x="1252" y="402" width="332" height="30" rx="6" fill="#15532f" stroke="#2e9e5b"/><text x="1418" y="421" text-anchor="middle" fill="#bcd2e4" font-size="11.5" font-weight="600">Run 10,000 Trials</text><rect x="320" y="680" width="320" height="196" rx="10" fill="rgba(12,22,33,.96)" stroke="#244d6e"/><text x="336" y="706" fill="#eaf4ff" font-size="13" font-weight="700" font-family="Oswald,Inter">PLA-FIR-014 · YJ-18 Battery</text><text x="336" y="726" fill="#8fa8c0" font-size="11">Team: <tspan fill="#e0584a">RED</tspan> · Fires · Sea · Mobile</text><text x="336" y="750" fill="#8fa8c0" font-size="11">Health</text><text x="430" y="750" fill="#e8b54a" font-size="11" font-family="monospace">70 / 100</text><text x="336" y="770" fill="#8fa8c0" font-size="11">Vuln</text><text x="430" y="770" fill="#dfeaf5" font-size="11" font-family="monospace">ASCM</text><text x="336" y="790" fill="#8fa8c0" font-size="11">Coords</text><text x="430" y="790" fill="#dfeaf5" font-size="11" font-family="monospace">30.05, 121.50</text><rect x="336" y="830" width="90" height="30" rx="6" fill="#5e1a1a" stroke="#9e3b3b"/><text x="381" y="849" text-anchor="middle" fill="#bcd2e4" font-size="11.5" font-weight="600">Strike</text><rect x="434" y="830" width="90" height="30" rx="6" fill="#11202e" stroke="#1d3447"/><text x="479" y="849" text-anchor="middle" fill="#bcd2e4" font-size="11.5" font-weight="600">Add to COA</text><rect x="532" y="830" width="92" height="30" rx="6" fill="#11202e" stroke="#1d3447"/><text x="578" y="849" text-anchor="middle" fill="#bcd2e4" font-size="11.5" font-weight="600">Close</text><defs><linearGradient id="bg" x1="0" y1="0" x2="0" y2="1"><stop offset="0" stop-color="#102234"/><stop offset="1" stop-color="#0a1826"/></linearGradient></defs><rect x="0" y="0" width="1600" height="54" fill="url(#bg)"/><line x1="0" y1="54" x2="1600" y2="54" stroke="#4bb8ff" stroke-opacity="0.5"/><path d="M18 16 l16 0 -4 22 -16 0 z" fill="#4bb8ff" opacity="0.85"/><text x="46" y="26" fill="#eaf6ff" font-size="17" font-weight="700" letter-spacing="3" font-family="Oswald,Inter">STRIKESIM 2040</text><text x="46" y="42" fill="#8fa8c0" font-size="9.5" letter-spacing="1.5">MULTI-DOMAIN STRIKE WARGAME · NOTIONAL // UNCLASS</text><rect x="606" y="11" width="388" height="32" rx="8" fill="#0b1825" stroke="#1d3447"/><rect x="608" y="13" width="96" height="28" rx="6" fill="transparent"/><text x="656" y="31" text-anchor="middle" fill="#8fa8c0" font-size="12" font-weight="500" letter-spacing="1">3D</text><rect x="704" y="13" width="96" height="28" rx="6" fill="#18466a"/><text x="752" y="31" text-anchor="middle" fill="#eaf6ff" font-size="12" font-weight="700" letter-spacing="1">MAP</text><rect x="800" y="13" width="96" height="28" rx="6" fill="transparent"/><text x="848" y="31" text-anchor="middle" fill="#8fa8c0" font-size="12" font-weight="500" letter-spacing="1">TABLE</text><rect x="896" y="13" width="96" height="28" rx="6" fill="transparent"/><text x="944" y="31" text-anchor="middle" fill="#8fa8c0" font-size="12" font-weight="500" letter-spacing="1">TASK ORG</text><rect x="1462" y="12" width="122" height="30" rx="7" fill="#15324a" stroke="#2c6f9b"/><text x="1523" y="31" text-anchor="middle" fill="#dff1ff" font-size="12" font-weight="600">⛶ Fullscreen</text><rect x="1348" y="12" width="106" height="30" rx="7" fill="#1d4e30" stroke="#2e9e5b"/><text x="1401" y="31" text-anchor="middle" fill="#dff1ff" font-size="12" font-weight="600">⚔ War Game</text><rect x="1234" y="12" width="106" height="30" rx="7" fill="#15324a" stroke="#2c6f9b"/><text x="1287" y="31" text-anchor="middle" fill="#dff1ff" font-size="12" font-weight="600">▣ Campaign</text></svg>