<svg xmlns="http://www.w3.org/2000/svg" width="618" height="890" viewBox="0 0 618 890" font-family="system-ui,Segoe UI,Arial"><rect width="618" height="890" fill="#0a1420"/><text x="20" y="32" fill="#cfe6f5" font-size="20" font-weight="700">Strike Sim — Tactical Symbology Proof Sheet (symbols.js)</text><text x="20" y="52" fill="#7fa6bf" font-size="12">Affiliation = frame shape/color · Type = central glyph · Domain = dimension cue · Health = status modifier</text><text x="169" y="58" fill="#9ec6dd" font-size="11" text-anchor="middle">FRIEND (blue)</text><text x="247" y="58" fill="#9ec6dd" font-size="11" text-anchor="middle">HOSTILE (red)</text><text x="325" y="58" fill="#9ec6dd" font-size="11" text-anchor="middle">NEUTRAL</text><text x="403" y="58" fill="#9ec6dd" font-size="11" text-anchor="middle">UNKNOWN</text><text x="481" y="58" fill="#9ec6dd" font-size="11" text-anchor="middle">DAMAGED</text><text x="559" y="58" fill="#9ec6dd" font-size="11" text-anchor="middle">DESTROYED</text><text x="118" y="113" fill="#cfe6f5" font-size="13" text-anchor="end">Command</text><g transform="translate(141,81) scale(0.875)"><g stroke="#3d9be0" stroke-width="3" fill="#bfe3ff" ><rect x="9" y="17" width="46" height="30" rx="7" ry="7" /></g><line x1="26" y1="22" x2="26" y2="44" stroke="#0a3553" stroke-width="3.2" fill="none" stroke-linecap="round" stroke-linejoin="round"/><path d="M26 22 L41 26 L26 31 Z" fill="#0a3553" stroke="none"/></g><g transform="translate(219,81) scale(0.875)"><g stroke="#e0584a" stroke-width="3" fill="#ffc9c2" ><path d="M32 7 L57 32 L32 57 L7 32 Z" /></g><line x1="26" y1="22" x2="26" y2="44" stroke="#5e1109" stroke-width="3.2" fill="none" stroke-linecap="round" stroke-linejoin="round"/><path d="M26 22 L41 26 L26 31 Z" fill="#5e1109" stroke="none"/></g><g transform="translate(297,81) scale(0.875)"><g stroke="#3fae6b" stroke-width="3" fill="#c7f0d6" ><rect x="11" y="11" width="42" height="42" /></g><line x1="26" y1="22" x2="26" y2="44" stroke="#0d3a23" stroke-width="3.2" fill="none" stroke-linecap="round" stroke-linejoin="round"/><path d="M26 22 L41 26 L26 31 Z" fill="#0d3a23" stroke="none"/></g><g transform="translate(375,81) scale(0.875)"><g stroke="#d9b53c" stroke-width="3" fill="#fff0bf" ><rect x="10" y="10" width="44" height="44" rx="16" ry="16" /></g><line x1="26" y1="22" x2="26" y2="44" stroke="#4a3a05" stroke-width="3.2" fill="none" stroke-linecap="round" stroke-linejoin="round"/><path d="M26 22 L41 26 L26 31 Z" fill="#4a3a05" stroke="none"/></g><g transform="translate(453,81) scale(0.875)"><g stroke="#e0584a" stroke-width="3" fill="#ffc9c2" stroke-dasharray="5 3"><path d="M32 7 L57 32 L32 57 L7 32 Z" /></g><line x1="26" y1="22" x2="26" y2="44" stroke="#5e1109" stroke-width="3.2" fill="none" stroke-linecap="round" stroke-linejoin="round"/><path d="M26 22 L41 26 L26 31 Z" fill="#5e1109" stroke="none"/><line x1="13" y1="51" x2="51" y2="13" stroke="#e0584a" stroke-width="3"/></g><g transform="translate(531,81) scale(0.875)"><g stroke="#3d9be0" stroke-width="3" fill="#bfe3ff" ><rect x="9" y="17" width="46" height="30" rx="7" ry="7" /></g><line x1="26" y1="22" x2="26" y2="44" stroke="#0a3553" stroke-width="3.2" fill="none" stroke-linecap="round" stroke-linejoin="round"/><path d="M26 22 L41 26 L26 31 Z" fill="#0a3553" stroke="none"/><line x1="9" y1="9" x2="55" y2="55" stroke="#ff2d2d" stroke-width="4" stroke-linecap="round"/><line x1="55" y1="9" x2="9" y2="55" stroke="#ff2d2d" stroke-width="4" stroke-linecap="round"/></g><text x="602" y="113" fill="#5e7d92" font-size="9">dom:Land</text><text x="118" y="191" fill="#cfe6f5" font-size="13" text-anchor="end">Sensor</text><g transform="translate(141,159) scale(0.875)"><g stroke="#3d9be0" stroke-width="3" fill="#bfe3ff" ><rect x="9" y="17" width="46" height="30" rx="7" ry="7" /></g><path d="M16 16 Q32 1 48 16" fill="none" stroke="#3d9be0" stroke-width="3"/><path d="M27 23 A12 12 0 0 1 27 41" stroke="#0a3553" stroke-width="3.2" fill="none" stroke-linecap="round" stroke-linejoin="round"/><path d="M33 26 A8 8 0 0 1 33 38" stroke="#0a3553" stroke-width="3.2" fill="none" stroke-linecap="round" stroke-linejoin="round"/><circle cx="24" cy="32" r="2.2" fill="#0a3553" stroke="none"/></g><g transform="translate(219,159) scale(0.875)"><g stroke="#e0584a" stroke-width="3" fill="#ffc9c2" ><path d="M32 7 L57 32 L32 57 L7 32 Z" /></g><path d="M16 16 Q32 1 48 16" fill="none" stroke="#e0584a" stroke-width="3"/><path d="M27 23 A12 12 0 0 1 27 41" stroke="#5e1109" stroke-width="3.2" fill="none" stroke-linecap="round" stroke-linejoin="round"/><path d="M33 26 A8 8 0 0 1 33 38" stroke="#5e1109" stroke-width="3.2" fill="none" stroke-linecap="round" stroke-linejoin="round"/><circle cx="24" cy="32" r="2.2" fill="#5e1109" stroke="none"/></g><g transform="translate(297,159) scale(0.875)"><g stroke="#3fae6b" stroke-width="3" fill="#c7f0d6" ><rect x="11" y="11" width="42" height="42" /></g><path d="M16 16 Q32 1 48 16" fill="none" stroke="#3fae6b" stroke-width="3"/><path d="M27 23 A12 12 0 0 1 27 41" stroke="#0d3a23" stroke-width="3.2" fill="none" stroke-linecap="round" stroke-linejoin="round"/><path d="M33 26 A8 8 0 0 1 33 38" stroke="#0d3a23" stroke-width="3.2" fill="none" stroke-linecap="round" stroke-linejoin="round"/><circle cx="24" cy="32" r="2.2" fill="#0d3a23" stroke="none"/></g><g transform="translate(375,159) scale(0.875)"><g stroke="#d9b53c" stroke-width="3" fill="#fff0bf" ><rect x="10" y="10" width="44" height="44" rx="16" ry="16" /></g><path d="M16 16 Q32 1 48 16" fill="none" stroke="#d9b53c" stroke-width="3"/><path d="M27 23 A12 12 0 0 1 27 41" stroke="#4a3a05" stroke-width="3.2" fill="none" stroke-linecap="round" stroke-linejoin="round"/><path d="M33 26 A8 8 0 0 1 33 38" stroke="#4a3a05" stroke-width="3.2" fill="none" stroke-linecap="round" stroke-linejoin="round"/><circle cx="24" cy="32" r="2.2" fill="#4a3a05" stroke="none"/></g><g transform="translate(453,159) scale(0.875)"><g stroke="#e0584a" stroke-width="3" fill="#ffc9c2" stroke-dasharray="5 3"><path d="M32 7 L57 32 L32 57 L7 32 Z" /></g><path d="M16 16 Q32 1 48 16" fill="none" stroke="#e0584a" stroke-width="3"/><path d="M27 23 A12 12 0 0 1 27 41" stroke="#5e1109" stroke-width="3.2" fill="none" stroke-linecap="round" stroke-linejoin="round"/><path d="M33 26 A8 8 0 0 1 33 38" stroke="#5e1109" stroke-width="3.2" fill="none" stroke-linecap="round" stroke-linejoin="round"/><circle cx="24" cy="32" r="2.2" fill="#5e1109" stroke="none"/><line x1="13" y1="51" x2="51" y2="13" stroke="#e0584a" stroke-width="3"/></g><g transform="translate(531,159) scale(0.875)"><g stroke="#3d9be0" stroke-width="3" fill="#bfe3ff" ><rect x="9" y="17" width="46" height="30" rx="7" ry="7" /></g><path d="M16 16 Q32 1 48 16" fill="none" stroke="#3d9be0" stroke-width="3"/><path d="M27 23 A12 12 0 0 1 27 41" stroke="#0a3553" stroke-width="3.2" fill="none" stroke-linecap="round" stroke-linejoin="round"/><path d="M33 26 A8 8 0 0 1 33 38" stroke="#0a3553" stroke-width="3.2" fill="none" stroke-linecap="round" stroke-linejoin="round"/><circle cx="24" cy="32" r="2.2" fill="#0a3553" stroke="none"/><line x1="9" y1="9" x2="55" y2="55" stroke="#ff2d2d" stroke-width="4" stroke-linecap="round"/><line x1="55" y1="9" x2="9" y2="55" stroke="#ff2d2d" stroke-width="4" stroke-linecap="round"/></g><text x="602" y="191" fill="#5e7d92" font-size="9">dom:Air</text><text x="118" y="269" fill="#cfe6f5" font-size="13" text-anchor="end">Comms</text><g transform="translate(141,237) scale(0.875)"><g stroke="#3d9be0" stroke-width="3" fill="#bfe3ff" ><rect x="9" y="17" width="46" height="30" rx="7" ry="7" /></g><path d="M14 54 q4.5 -4 9 0 t9 0 t9 0" fill="none" stroke="#3d9be0" stroke-width="2.6"/><line x1="32" y1="24" x2="32" y2="44" stroke="#0a3553" stroke-width="3.2" fill="none" stroke-linecap="round" stroke-linejoin="round"/><path d="M25 27 Q32 21 39 27" stroke="#0a3553" stroke-width="3.2" fill="none" stroke-linecap="round" stroke-linejoin="round"/><path d="M22 24 Q32 15 42 24" stroke="#0a3553" stroke-width="3.2" fill="none" stroke-linecap="round" stroke-linejoin="round"/></g><g transform="translate(219,237) scale(0.875)"><g stroke="#e0584a" stroke-width="3" fill="#ffc9c2" ><path d="M32 7 L57 32 L32 57 L7 32 Z" /></g><path d="M14 54 q4.5 -4 9 0 t9 0 t9 0" fill="none" stroke="#e0584a" stroke-width="2.6"/><line x1="32" y1="24" x2="32" y2="44" stroke="#5e1109" stroke-width="3.2" fill="none" stroke-linecap="round" stroke-linejoin="round"/><path d="M25 27 Q32 21 39 27" stroke="#5e1109" stroke-width="3.2" fill="none" stroke-linecap="round" stroke-linejoin="round"/><path d="M22 24 Q32 15 42 24" stroke="#5e1109" stroke-width="3.2" fill="none" stroke-linecap="round" stroke-linejoin="round"/></g><g transform="translate(297,237) scale(0.875)"><g stroke="#3fae6b" stroke-width="3" fill="#c7f0d6" ><rect x="11" y="11" width="42" height="42" /></g><path d="M14 54 q4.5 -4 9 0 t9 0 t9 0" fill="none" stroke="#3fae6b" stroke-width="2.6"/><line x1="32" y1="24" x2="32" y2="44" stroke="#0d3a23" stroke-width="3.2" fill="none" stroke-linecap="round" stroke-linejoin="round"/><path d="M25 27 Q32 21 39 27" stroke="#0d3a23" stroke-width="3.2" fill="none" stroke-linecap="round" stroke-linejoin="round"/><path d="M22 24 Q32 15 42 24" stroke="#0d3a23" stroke-width="3.2" fill="none" stroke-linecap="round" stroke-linejoin="round"/></g><g transform="translate(375,237) scale(0.875)"><g stroke="#d9b53c" stroke-width="3" fill="#fff0bf" ><rect x="10" y="10" width="44" height="44" rx="16" ry="16" /></g><path d="M14 54 q4.5 -4 9 0 t9 0 t9 0" fill="none" stroke="#d9b53c" stroke-width="2.6"/><line x1="32" y1="24" x2="32" y2="44" stroke="#4a3a05" stroke-width="3.2" fill="none" stroke-linecap="round" stroke-linejoin="round"/><path d="M25 27 Q32 21 39 27" stroke="#4a3a05" stroke-width="3.2" fill="none" stroke-linecap="round" stroke-linejoin="round"/><path d="M22 24 Q32 15 42 24" stroke="#4a3a05" stroke-width="3.2" fill="none" stroke-linecap="round" stroke-linejoin="round"/></g><g transform="translate(453,237) scale(0.875)"><g stroke="#e0584a" stroke-width="3" fill="#ffc9c2" stroke-dasharray="5 3"><path d="M32 7 L57 32 L32 57 L7 32 Z" /></g><path d="M14 54 q4.5 -4 9 0 t9 0 t9 0" fill="none" stroke="#e0584a" stroke-width="2.6"/><line x1="32" y1="24" x2="32" y2="44" stroke="#5e1109" stroke-width="3.2" fill="none" stroke-linecap="round" stroke-linejoin="round"/><path d="M25 27 Q32 21 39 27" stroke="#5e1109" stroke-width="3.2" fill="none" stroke-linecap="round" stroke-linejoin="round"/><path d="M22 24 Q32 15 42 24" stroke="#5e1109" stroke-width="3.2" fill="none" stroke-linecap="round" stroke-linejoin="round"/><line x1="13" y1="51" x2="51" y2="13" stroke="#e0584a" stroke-width="3"/></g><g transform="translate(531,237) scale(0.875)"><g stroke="#3d9be0" stroke-width="3" fill="#bfe3ff" ><rect x="9" y="17" width="46" height="30" rx="7" ry="7" /></g><path d="M14 54 q4.5 -4 9 0 t9 0 t9 0" fill="none" stroke="#3d9be0" stroke-width="2.6"/><line x1="32" y1="24" x2="32" y2="44" stroke="#0a3553" stroke-width="3.2" fill="none" stroke-linecap="round" stroke-linejoin="round"/><path d="M25 27 Q32 21 39 27" stroke="#0a3553" stroke-width="3.2" fill="none" stroke-linecap="round" stroke-linejoin="round"/><path d="M22 24 Q32 15 42 24" stroke="#0a3553" stroke-width="3.2" fill="none" stroke-linecap="round" stroke-linejoin="round"/><line x1="9" y1="9" x2="55" y2="55" stroke="#ff2d2d" stroke-width="4" stroke-linecap="round"/><line x1="55" y1="9" x2="9" y2="55" stroke="#ff2d2d" stroke-width="4" stroke-linecap="round"/></g><text x="602" y="269" fill="#5e7d92" font-size="9">dom:Sea</text><text x="118" y="347" fill="#cfe6f5" font-size="13" text-anchor="end">Fires</text><g transform="translate(141,315) scale(0.875)"><g stroke="#3d9be0" stroke-width="3" fill="#bfe3ff" ><rect x="9" y="17" width="46" height="30" rx="7" ry="7" /></g><path d="M16 16 Q32 1 48 16" fill="none" stroke="#3d9be0" stroke-width="3"/><path d="M32 9 l2.4 4.9 5.4 .8 -3.9 3.8 .9 5.4 -4.8 -2.5 -4.8 2.5 .9 -5.4 -3.9 -3.8 5.4 -.8 Z" fill="#3d9be0" stroke="none"/><circle cx="32" cy="32" r="8.5" fill="#0a3553" stroke="none"/></g><g transform="translate(219,315) scale(0.875)"><g stroke="#e0584a" stroke-width="3" fill="#ffc9c2" ><path d="M32 7 L57 32 L32 57 L7 32 Z" /></g><path d="M16 16 Q32 1 48 16" fill="none" stroke="#e0584a" stroke-width="3"/><path d="M32 9 l2.4 4.9 5.4 .8 -3.9 3.8 .9 5.4 -4.8 -2.5 -4.8 2.5 .9 -5.4 -3.9 -3.8 5.4 -.8 Z" fill="#e0584a" stroke="none"/><circle cx="32" cy="32" r="8.5" fill="#5e1109" stroke="none"/></g><g transform="translate(297,315) scale(0.875)"><g stroke="#3fae6b" stroke-width="3" fill="#c7f0d6" ><rect x="11" y="11" width="42" height="42" /></g><path d="M16 16 Q32 1 48 16" fill="none" stroke="#3fae6b" stroke-width="3"/><path d="M32 9 l2.4 4.9 5.4 .8 -3.9 3.8 .9 5.4 -4.8 -2.5 -4.8 2.5 .9 -5.4 -3.9 -3.8 5.4 -.8 Z" fill="#3fae6b" stroke="none"/><circle cx="32" cy="32" r="8.5" fill="#0d3a23" stroke="none"/></g><g transform="translate(375,315) scale(0.875)"><g stroke="#d9b53c" stroke-width="3" fill="#fff0bf" ><rect x="10" y="10" width="44" height="44" rx="16" ry="16" /></g><path d="M16 16 Q32 1 48 16" fill="none" stroke="#d9b53c" stroke-width="3"/><path d="M32 9 l2.4 4.9 5.4 .8 -3.9 3.8 .9 5.4 -4.8 -2.5 -4.8 2.5 .9 -5.4 -3.9 -3.8 5.4 -.8 Z" fill="#d9b53c" stroke="none"/><circle cx="32" cy="32" r="8.5" fill="#4a3a05" stroke="none"/></g><g transform="translate(453,315) scale(0.875)"><g stroke="#e0584a" stroke-width="3" fill="#ffc9c2" stroke-dasharray="5 3"><path d="M32 7 L57 32 L32 57 L7 32 Z" /></g><path d="M16 16 Q32 1 48 16" fill="none" stroke="#e0584a" stroke-width="3"/><path d="M32 9 l2.4 4.9 5.4 .8 -3.9 3.8 .9 5.4 -4.8 -2.5 -4.8 2.5 .9 -5.4 -3.9 -3.8 5.4 -.8 Z" fill="#e0584a" stroke="none"/><circle cx="32" cy="32" r="8.5" fill="#5e1109" stroke="none"/><line x1="13" y1="51" x2="51" y2="13" stroke="#e0584a" stroke-width="3"/></g><g transform="translate(531,315) scale(0.875)"><g stroke="#3d9be0" stroke-width="3" fill="#bfe3ff" ><rect x="9" y="17" width="46" height="30" rx="7" ry="7" /></g><path d="M16 16 Q32 1 48 16" fill="none" stroke="#3d9be0" stroke-width="3"/><path d="M32 9 l2.4 4.9 5.4 .8 -3.9 3.8 .9 5.4 -4.8 -2.5 -4.8 2.5 .9 -5.4 -3.9 -3.8 5.4 -.8 Z" fill="#3d9be0" stroke="none"/><circle cx="32" cy="32" r="8.5" fill="#0a3553" stroke="none"/><line x1="9" y1="9" x2="55" y2="55" stroke="#ff2d2d" stroke-width="4" stroke-linecap="round"/><line x1="55" y1="9" x2="9" y2="55" stroke="#ff2d2d" stroke-width="4" stroke-linecap="round"/></g><text x="602" y="347" fill="#5e7d92" font-size="9">dom:Space</text><text x="118" y="425" fill="#cfe6f5" font-size="13" text-anchor="end">Assault</text><g transform="translate(141,393) scale(0.875)"><g stroke="#3d9be0" stroke-width="3" fill="#bfe3ff" ><rect x="9" y="17" width="46" height="30" rx="7" ry="7" /></g><line x1="21" y1="21" x2="43" y2="43" stroke="#0a3553" stroke-width="3.2" fill="none" stroke-linecap="round" stroke-linejoin="round"/><line x1="43" y1="21" x2="21" y2="43" stroke="#0a3553" stroke-width="3.2" fill="none" stroke-linecap="round" stroke-linejoin="round"/></g><g transform="translate(219,393) scale(0.875)"><g stroke="#e0584a" stroke-width="3" fill="#ffc9c2" ><path d="M32 7 L57 32 L32 57 L7 32 Z" /></g><line x1="21" y1="21" x2="43" y2="43" stroke="#5e1109" stroke-width="3.2" fill="none" stroke-linecap="round" stroke-linejoin="round"/><line x1="43" y1="21" x2="21" y2="43" stroke="#5e1109" stroke-width="3.2" fill="none" stroke-linecap="round" stroke-linejoin="round"/></g><g transform="translate(297,393) scale(0.875)"><g stroke="#3fae6b" stroke-width="3" fill="#c7f0d6" ><rect x="11" y="11" width="42" height="42" /></g><line x1="21" y1="21" x2="43" y2="43" stroke="#0d3a23" stroke-width="3.2" fill="none" stroke-linecap="round" stroke-linejoin="round"/><line x1="43" y1="21" x2="21" y2="43" stroke="#0d3a23" stroke-width="3.2" fill="none" stroke-linecap="round" stroke-linejoin="round"/></g><g transform="translate(375,393) scale(0.875)"><g stroke="#d9b53c" stroke-width="3" fill="#fff0bf" ><rect x="10" y="10" width="44" height="44" rx="16" ry="16" /></g><line x1="21" y1="21" x2="43" y2="43" stroke="#4a3a05" stroke-width="3.2" fill="none" stroke-linecap="round" stroke-linejoin="round"/><line x1="43" y1="21" x2="21" y2="43" stroke="#4a3a05" stroke-width="3.2" fill="none" stroke-linecap="round" stroke-linejoin="round"/></g><g transform="translate(453,393) scale(0.875)"><g stroke="#e0584a" stroke-width="3" fill="#ffc9c2" stroke-dasharray="5 3"><path d="M32 7 L57 32 L32 57 L7 32 Z" /></g><line x1="21" y1="21" x2="43" y2="43" stroke="#5e1109" stroke-width="3.2" fill="none" stroke-linecap="round" stroke-linejoin="round"/><line x1="43" y1="21" x2="21" y2="43" stroke="#5e1109" stroke-width="3.2" fill="none" stroke-linecap="round" stroke-linejoin="round"/><line x1="13" y1="51" x2="51" y2="13" stroke="#e0584a" stroke-width="3"/></g><g transform="translate(531,393) scale(0.875)"><g stroke="#3d9be0" stroke-width="3" fill="#bfe3ff" ><rect x="9" y="17" width="46" height="30" rx="7" ry="7" /></g><line x1="21" y1="21" x2="43" y2="43" stroke="#0a3553" stroke-width="3.2" fill="none" stroke-linecap="round" stroke-linejoin="round"/><line x1="43" y1="21" x2="21" y2="43" stroke="#0a3553" stroke-width="3.2" fill="none" stroke-linecap="round" stroke-linejoin="round"/><line x1="9" y1="9" x2="55" y2="55" stroke="#ff2d2d" stroke-width="4" stroke-linecap="round"/><line x1="55" y1="9" x2="9" y2="55" stroke="#ff2d2d" stroke-width="4" stroke-linecap="round"/></g><text x="602" y="425" fill="#5e7d92" font-size="9">dom:Cyber</text><text x="118" y="503" fill="#cfe6f5" font-size="13" text-anchor="end">Blockade</text><g transform="translate(141,471) scale(0.875)"><g stroke="#3d9be0" stroke-width="3" fill="#bfe3ff" ><rect x="9" y="17" width="46" height="30" rx="7" ry="7" /></g><line x1="24" y1="22" x2="24" y2="42" stroke="#0a3553" stroke-width="3.2" fill="none" stroke-linecap="round" stroke-linejoin="round"/><line x1="32" y1="22" x2="32" y2="42" stroke="#0a3553" stroke-width="3.2" fill="none" stroke-linecap="round" stroke-linejoin="round"/><line x1="40" y1="22" x2="40" y2="42" stroke="#0a3553" stroke-width="3.2" fill="none" stroke-linecap="round" stroke-linejoin="round"/></g><g transform="translate(219,471) scale(0.875)"><g stroke="#e0584a" stroke-width="3" fill="#ffc9c2" ><path d="M32 7 L57 32 L32 57 L7 32 Z" /></g><line x1="24" y1="22" x2="24" y2="42" stroke="#5e1109" stroke-width="3.2" fill="none" stroke-linecap="round" stroke-linejoin="round"/><line x1="32" y1="22" x2="32" y2="42" stroke="#5e1109" stroke-width="3.2" fill="none" stroke-linecap="round" stroke-linejoin="round"/><line x1="40" y1="22" x2="40" y2="42" stroke="#5e1109" stroke-width="3.2" fill="none" stroke-linecap="round" stroke-linejoin="round"/></g><g transform="translate(297,471) scale(0.875)"><g stroke="#3fae6b" stroke-width="3" fill="#c7f0d6" ><rect x="11" y="11" width="42" height="42" /></g><line x1="24" y1="22" x2="24" y2="42" stroke="#0d3a23" stroke-width="3.2" fill="none" stroke-linecap="round" stroke-linejoin="round"/><line x1="32" y1="22" x2="32" y2="42" stroke="#0d3a23" stroke-width="3.2" fill="none" stroke-linecap="round" stroke-linejoin="round"/><line x1="40" y1="22" x2="40" y2="42" stroke="#0d3a23" stroke-width="3.2" fill="none" stroke-linecap="round" stroke-linejoin="round"/></g><g transform="translate(375,471) scale(0.875)"><g stroke="#d9b53c" stroke-width="3" fill="#fff0bf" ><rect x="10" y="10" width="44" height="44" rx="16" ry="16" /></g><line x1="24" y1="22" x2="24" y2="42" stroke="#4a3a05" stroke-width="3.2" fill="none" stroke-linecap="round" stroke-linejoin="round"/><line x1="32" y1="22" x2="32" y2="42" stroke="#4a3a05" stroke-width="3.2" fill="none" stroke-linecap="round" stroke-linejoin="round"/><line x1="40" y1="22" x2="40" y2="42" stroke="#4a3a05" stroke-width="3.2" fill="none" stroke-linecap="round" stroke-linejoin="round"/></g><g transform="translate(453,471) scale(0.875)"><g stroke="#e0584a" stroke-width="3" fill="#ffc9c2" stroke-dasharray="5 3"><path d="M32 7 L57 32 L32 57 L7 32 Z" /></g><line x1="24" y1="22" x2="24" y2="42" stroke="#5e1109" stroke-width="3.2" fill="none" stroke-linecap="round" stroke-linejoin="round"/><line x1="32" y1="22" x2="32" y2="42" stroke="#5e1109" stroke-width="3.2" fill="none" stroke-linecap="round" stroke-linejoin="round"/><line x1="40" y1="22" x2="40" y2="42" stroke="#5e1109" stroke-width="3.2" fill="none" stroke-linecap="round" stroke-linejoin="round"/><line x1="13" y1="51" x2="51" y2="13" stroke="#e0584a" stroke-width="3"/></g><g transform="translate(531,471) scale(0.875)"><g stroke="#3d9be0" stroke-width="3" fill="#bfe3ff" ><rect x="9" y="17" width="46" height="30" rx="7" ry="7" /></g><line x1="24" y1="22" x2="24" y2="42" stroke="#0a3553" stroke-width="3.2" fill="none" stroke-linecap="round" stroke-linejoin="round"/><line x1="32" y1="22" x2="32" y2="42" stroke="#0a3553" stroke-width="3.2" fill="none" stroke-linecap="round" stroke-linejoin="round"/><line x1="40" y1="22" x2="40" y2="42" stroke="#0a3553" stroke-width="3.2" fill="none" stroke-linecap="round" stroke-linejoin="round"/><line x1="9" y1="9" x2="55" y2="55" stroke="#ff2d2d" stroke-width="4" stroke-linecap="round"/><line x1="55" y1="9" x2="9" y2="55" stroke="#ff2d2d" stroke-width="4" stroke-linecap="round"/></g><text x="602" y="503" fill="#5e7d92" font-size="9">dom:EW</text><text x="118" y="581" fill="#cfe6f5" font-size="13" text-anchor="end">EW/Cyber</text><g transform="translate(141,549) scale(0.875)"><g stroke="#3d9be0" stroke-width="3" fill="#bfe3ff" ><rect x="9" y="17" width="46" height="30" rx="7" ry="7" /></g><path d="M19 33 q4 -11 8 0 t8 0 t8 0" stroke="#0a3553" stroke-width="3.2" fill="none" stroke-linecap="round" stroke-linejoin="round"/><path d="M33 22 L29 32 L34 32 L30 42" stroke="#0a3553" stroke-width="2.4" fill="none" stroke-linejoin="round"/></g><g transform="translate(219,549) scale(0.875)"><g stroke="#e0584a" stroke-width="3" fill="#ffc9c2" ><path d="M32 7 L57 32 L32 57 L7 32 Z" /></g><path d="M19 33 q4 -11 8 0 t8 0 t8 0" stroke="#5e1109" stroke-width="3.2" fill="none" stroke-linecap="round" stroke-linejoin="round"/><path d="M33 22 L29 32 L34 32 L30 42" stroke="#5e1109" stroke-width="2.4" fill="none" stroke-linejoin="round"/></g><g transform="translate(297,549) scale(0.875)"><g stroke="#3fae6b" stroke-width="3" fill="#c7f0d6" ><rect x="11" y="11" width="42" height="42" /></g><path d="M19 33 q4 -11 8 0 t8 0 t8 0" stroke="#0d3a23" stroke-width="3.2" fill="none" stroke-linecap="round" stroke-linejoin="round"/><path d="M33 22 L29 32 L34 32 L30 42" stroke="#0d3a23" stroke-width="2.4" fill="none" stroke-linejoin="round"/></g><g transform="translate(375,549) scale(0.875)"><g stroke="#d9b53c" stroke-width="3" fill="#fff0bf" ><rect x="10" y="10" width="44" height="44" rx="16" ry="16" /></g><path d="M19 33 q4 -11 8 0 t8 0 t8 0" stroke="#4a3a05" stroke-width="3.2" fill="none" stroke-linecap="round" stroke-linejoin="round"/><path d="M33 22 L29 32 L34 32 L30 42" stroke="#4a3a05" stroke-width="2.4" fill="none" stroke-linejoin="round"/></g><g transform="translate(453,549) scale(0.875)"><g stroke="#e0584a" stroke-width="3" fill="#ffc9c2" stroke-dasharray="5 3"><path d="M32 7 L57 32 L32 57 L7 32 Z" /></g><path d="M19 33 q4 -11 8 0 t8 0 t8 0" stroke="#5e1109" stroke-width="3.2" fill="none" stroke-linecap="round" stroke-linejoin="round"/><path d="M33 22 L29 32 L34 32 L30 42" stroke="#5e1109" stroke-width="2.4" fill="none" stroke-linejoin="round"/><line x1="13" y1="51" x2="51" y2="13" stroke="#e0584a" stroke-width="3"/></g><g transform="translate(531,549) scale(0.875)"><g stroke="#3d9be0" stroke-width="3" fill="#bfe3ff" ><rect x="9" y="17" width="46" height="30" rx="7" ry="7" /></g><path d="M19 33 q4 -11 8 0 t8 0 t8 0" stroke="#0a3553" stroke-width="3.2" fill="none" stroke-linecap="round" stroke-linejoin="round"/><path d="M33 22 L29 32 L34 32 L30 42" stroke="#0a3553" stroke-width="2.4" fill="none" stroke-linejoin="round"/><line x1="9" y1="9" x2="55" y2="55" stroke="#ff2d2d" stroke-width="4" stroke-linecap="round"/><line x1="55" y1="9" x2="9" y2="55" stroke="#ff2d2d" stroke-width="4" stroke-linecap="round"/></g><text x="602" y="581" fill="#5e7d92" font-size="9">dom:Land</text><text x="118" y="659" fill="#cfe6f5" font-size="13" text-anchor="end">Logistics</text><g transform="translate(141,627) scale(0.875)"><g stroke="#3d9be0" stroke-width="3" fill="#bfe3ff" ><rect x="9" y="17" width="46" height="30" rx="7" ry="7" /></g><path d="M16 16 Q32 1 48 16" fill="none" stroke="#3d9be0" stroke-width="3"/><rect x="23" y="26" width="18" height="12" rx="1.5" fill="#0a3553" stroke="none"/><line x1="23" y1="32" x2="41" y2="32" stroke="#648fad" stroke-width="2"/></g><g transform="translate(219,627) scale(0.875)"><g stroke="#e0584a" stroke-width="3" fill="#ffc9c2" ><path d="M32 7 L57 32 L32 57 L7 32 Z" /></g><path d="M16 16 Q32 1 48 16" fill="none" stroke="#e0584a" stroke-width="3"/><rect x="23" y="26" width="18" height="12" rx="1.5" fill="#5e1109" stroke="none"/><line x1="23" y1="32" x2="41" y2="32" stroke="#b86b63" stroke-width="2"/></g><g transform="translate(297,627) scale(0.875)"><g stroke="#3fae6b" stroke-width="3" fill="#c7f0d6" ><rect x="11" y="11" width="42" height="42" /></g><path d="M16 16 Q32 1 48 16" fill="none" stroke="#3fae6b" stroke-width="3"/><rect x="23" y="26" width="18" height="12" rx="1.5" fill="#0d3a23" stroke="none"/><line x1="23" y1="32" x2="41" y2="32" stroke="#67947d" stroke-width="2"/></g><g transform="translate(375,627) scale(0.875)"><g stroke="#d9b53c" stroke-width="3" fill="#fff0bf" ><rect x="10" y="10" width="44" height="44" rx="16" ry="16" /></g><path d="M16 16 Q32 1 48 16" fill="none" stroke="#d9b53c" stroke-width="3"/><rect x="23" y="26" width="18" height="12" rx="1.5" fill="#4a3a05" stroke="none"/><line x1="23" y1="32" x2="41" y2="32" stroke="#a4945f" stroke-width="2"/></g><g transform="translate(453,627) scale(0.875)"><g stroke="#e0584a" stroke-width="3" fill="#ffc9c2" stroke-dasharray="5 3"><path d="M32 7 L57 32 L32 57 L7 32 Z" /></g><path d="M16 16 Q32 1 48 16" fill="none" stroke="#e0584a" stroke-width="3"/><rect x="23" y="26" width="18" height="12" rx="1.5" fill="#5e1109" stroke="none"/><line x1="23" y1="32" x2="41" y2="32" stroke="#b86b63" stroke-width="2"/><line x1="13" y1="51" x2="51" y2="13" stroke="#e0584a" stroke-width="3"/></g><g transform="translate(531,627) scale(0.875)"><g stroke="#3d9be0" stroke-width="3" fill="#bfe3ff" ><rect x="9" y="17" width="46" height="30" rx="7" ry="7" /></g><path d="M16 16 Q32 1 48 16" fill="none" stroke="#3d9be0" stroke-width="3"/><rect x="23" y="26" width="18" height="12" rx="1.5" fill="#0a3553" stroke="none"/><line x1="23" y1="32" x2="41" y2="32" stroke="#648fad" stroke-width="2"/><line x1="9" y1="9" x2="55" y2="55" stroke="#ff2d2d" stroke-width="4" stroke-linecap="round"/><line x1="55" y1="9" x2="9" y2="55" stroke="#ff2d2d" stroke-width="4" stroke-linecap="round"/></g><text x="602" y="659" fill="#5e7d92" font-size="9">dom:Air</text><text x="118" y="737" fill="#cfe6f5" font-size="13" text-anchor="end">Protection</text><g transform="translate(141,705) scale(0.875)"><g stroke="#3d9be0" stroke-width="3" fill="#bfe3ff" ><rect x="9" y="17" width="46" height="30" rx="7" ry="7" /></g><path d="M14 54 q4.5 -4 9 0 t9 0 t9 0" fill="none" stroke="#3d9be0" stroke-width="2.6"/><path d="M21 39 L32 27 L43 39" stroke="#0a3553" stroke-width="3.2" fill="none" stroke-linecap="round" stroke-linejoin="round"/><path d="M24 44 L32 35 L40 44" stroke="#0a3553" stroke-width="2.4" fill="none" stroke-linecap="round" stroke-linejoin="round"/></g><g transform="translate(219,705) scale(0.875)"><g stroke="#e0584a" stroke-width="3" fill="#ffc9c2" ><path d="M32 7 L57 32 L32 57 L7 32 Z" /></g><path d="M14 54 q4.5 -4 9 0 t9 0 t9 0" fill="none" stroke="#e0584a" stroke-width="2.6"/><path d="M21 39 L32 27 L43 39" stroke="#5e1109" stroke-width="3.2" fill="none" stroke-linecap="round" stroke-linejoin="round"/><path d="M24 44 L32 35 L40 44" stroke="#5e1109" stroke-width="2.4" fill="none" stroke-linecap="round" stroke-linejoin="round"/></g><g transform="translate(297,705) scale(0.875)"><g stroke="#3fae6b" stroke-width="3" fill="#c7f0d6" ><rect x="11" y="11" width="42" height="42" /></g><path d="M14 54 q4.5 -4 9 0 t9 0 t9 0" fill="none" stroke="#3fae6b" stroke-width="2.6"/><path d="M21 39 L32 27 L43 39" stroke="#0d3a23" stroke-width="3.2" fill="none" stroke-linecap="round" stroke-linejoin="round"/><path d="M24 44 L32 35 L40 44" stroke="#0d3a23" stroke-width="2.4" fill="none" stroke-linecap="round" stroke-linejoin="round"/></g><g transform="translate(375,705) scale(0.875)"><g stroke="#d9b53c" stroke-width="3" fill="#fff0bf" ><rect x="10" y="10" width="44" height="44" rx="16" ry="16" /></g><path d="M14 54 q4.5 -4 9 0 t9 0 t9 0" fill="none" stroke="#d9b53c" stroke-width="2.6"/><path d="M21 39 L32 27 L43 39" stroke="#4a3a05" stroke-width="3.2" fill="none" stroke-linecap="round" stroke-linejoin="round"/><path d="M24 44 L32 35 L40 44" stroke="#4a3a05" stroke-width="2.4" fill="none" stroke-linecap="round" stroke-linejoin="round"/></g><g transform="translate(453,705) scale(0.875)"><g stroke="#e0584a" stroke-width="3" fill="#ffc9c2" stroke-dasharray="5 3"><path d="M32 7 L57 32 L32 57 L7 32 Z" /></g><path d="M14 54 q4.5 -4 9 0 t9 0 t9 0" fill="none" stroke="#e0584a" stroke-width="2.6"/><path d="M21 39 L32 27 L43 39" stroke="#5e1109" stroke-width="3.2" fill="none" stroke-linecap="round" stroke-linejoin="round"/><path d="M24 44 L32 35 L40 44" stroke="#5e1109" stroke-width="2.4" fill="none" stroke-linecap="round" stroke-linejoin="round"/><line x1="13" y1="51" x2="51" y2="13" stroke="#e0584a" stroke-width="3"/></g><g transform="translate(531,705) scale(0.875)"><g stroke="#3d9be0" stroke-width="3" fill="#bfe3ff" ><rect x="9" y="17" width="46" height="30" rx="7" ry="7" /></g><path d="M14 54 q4.5 -4 9 0 t9 0 t9 0" fill="none" stroke="#3d9be0" stroke-width="2.6"/><path d="M21 39 L32 27 L43 39" stroke="#0a3553" stroke-width="3.2" fill="none" stroke-linecap="round" stroke-linejoin="round"/><path d="M24 44 L32 35 L40 44" stroke="#0a3553" stroke-width="2.4" fill="none" stroke-linecap="round" stroke-linejoin="round"/><line x1="9" y1="9" x2="55" y2="55" stroke="#ff2d2d" stroke-width="4" stroke-linecap="round"/><line x1="55" y1="9" x2="9" y2="55" stroke="#ff2d2d" stroke-width="4" stroke-linecap="round"/></g><text x="602" y="737" fill="#5e7d92" font-size="9">dom:Sea</text><text x="118" y="815" fill="#cfe6f5" font-size="13" text-anchor="end">Support</text><g transform="translate(141,783) scale(0.875)"><g stroke="#3d9be0" stroke-width="3" fill="#bfe3ff" ><rect x="9" y="17" width="46" height="30" rx="7" ry="7" /></g><path d="M16 16 Q32 1 48 16" fill="none" stroke="#3d9be0" stroke-width="3"/><path d="M32 9 l2.4 4.9 5.4 .8 -3.9 3.8 .9 5.4 -4.8 -2.5 -4.8 2.5 .9 -5.4 -3.9 -3.8 5.4 -.8 Z" fill="#3d9be0" stroke="none"/><path d="M27 23 A12 12 0 0 1 27 41" stroke="#0a3553" stroke-width="3.2" fill="none" stroke-linecap="round" stroke-linejoin="round"/><path d="M33 26 A8 8 0 0 1 33 38" stroke="#0a3553" stroke-width="3.2" fill="none" stroke-linecap="round" stroke-linejoin="round"/><circle cx="24" cy="32" r="2.2" fill="#0a3553" stroke="none"/></g><g transform="translate(219,783) scale(0.875)"><g stroke="#e0584a" stroke-width="3" fill="#ffc9c2" ><path d="M32 7 L57 32 L32 57 L7 32 Z" /></g><path d="M16 16 Q32 1 48 16" fill="none" stroke="#e0584a" stroke-width="3"/><path d="M32 9 l2.4 4.9 5.4 .8 -3.9 3.8 .9 5.4 -4.8 -2.5 -4.8 2.5 .9 -5.4 -3.9 -3.8 5.4 -.8 Z" fill="#e0584a" stroke="none"/><path d="M27 23 A12 12 0 0 1 27 41" stroke="#5e1109" stroke-width="3.2" fill="none" stroke-linecap="round" stroke-linejoin="round"/><path d="M33 26 A8 8 0 0 1 33 38" stroke="#5e1109" stroke-width="3.2" fill="none" stroke-linecap="round" stroke-linejoin="round"/><circle cx="24" cy="32" r="2.2" fill="#5e1109" stroke="none"/></g><g transform="translate(297,783) scale(0.875)"><g stroke="#3fae6b" stroke-width="3" fill="#c7f0d6" ><rect x="11" y="11" width="42" height="42" /></g><path d="M16 16 Q32 1 48 16" fill="none" stroke="#3fae6b" stroke-width="3"/><path d="M32 9 l2.4 4.9 5.4 .8 -3.9 3.8 .9 5.4 -4.8 -2.5 -4.8 2.5 .9 -5.4 -3.9 -3.8 5.4 -.8 Z" fill="#3fae6b" stroke="none"/><path d="M27 23 A12 12 0 0 1 27 41" stroke="#0d3a23" stroke-width="3.2" fill="none" stroke-linecap="round" stroke-linejoin="round"/><path d="M33 26 A8 8 0 0 1 33 38" stroke="#0d3a23" stroke-width="3.2" fill="none" stroke-linecap="round" stroke-linejoin="round"/><circle cx="24" cy="32" r="2.2" fill="#0d3a23" stroke="none"/></g><g transform="translate(375,783) scale(0.875)"><g stroke="#d9b53c" stroke-width="3" fill="#fff0bf" ><rect x="10" y="10" width="44" height="44" rx="16" ry="16" /></g><path d="M16 16 Q32 1 48 16" fill="none" stroke="#d9b53c" stroke-width="3"/><path d="M32 9 l2.4 4.9 5.4 .8 -3.9 3.8 .9 5.4 -4.8 -2.5 -4.8 2.5 .9 -5.4 -3.9 -3.8 5.4 -.8 Z" fill="#d9b53c" stroke="none"/><path d="M27 23 A12 12 0 0 1 27 41" stroke="#4a3a05" stroke-width="3.2" fill="none" stroke-linecap="round" stroke-linejoin="round"/><path d="M33 26 A8 8 0 0 1 33 38" stroke="#4a3a05" stroke-width="3.2" fill="none" stroke-linecap="round" stroke-linejoin="round"/><circle cx="24" cy="32" r="2.2" fill="#4a3a05" stroke="none"/></g><g transform="translate(453,783) scale(0.875)"><g stroke="#e0584a" stroke-width="3" fill="#ffc9c2" stroke-dasharray="5 3"><path d="M32 7 L57 32 L32 57 L7 32 Z" /></g><path d="M16 16 Q32 1 48 16" fill="none" stroke="#e0584a" stroke-width="3"/><path d="M32 9 l2.4 4.9 5.4 .8 -3.9 3.8 .9 5.4 -4.8 -2.5 -4.8 2.5 .9 -5.4 -3.9 -3.8 5.4 -.8 Z" fill="#e0584a" stroke="none"/><path d="M27 23 A12 12 0 0 1 27 41" stroke="#5e1109" stroke-width="3.2" fill="none" stroke-linecap="round" stroke-linejoin="round"/><path d="M33 26 A8 8 0 0 1 33 38" stroke="#5e1109" stroke-width="3.2" fill="none" stroke-linecap="round" stroke-linejoin="round"/><circle cx="24" cy="32" r="2.2" fill="#5e1109" stroke="none"/><line x1="13" y1="51" x2="51" y2="13" stroke="#e0584a" stroke-width="3"/></g><g transform="translate(531,783) scale(0.875)"><g stroke="#3d9be0" stroke-width="3" fill="#bfe3ff" ><rect x="9" y="17" width="46" height="30" rx="7" ry="7" /></g><path d="M16 16 Q32 1 48 16" fill="none" stroke="#3d9be0" stroke-width="3"/><path d="M32 9 l2.4 4.9 5.4 .8 -3.9 3.8 .9 5.4 -4.8 -2.5 -4.8 2.5 .9 -5.4 -3.9 -3.8 5.4 -.8 Z" fill="#3d9be0" stroke="none"/><path d="M27 23 A12 12 0 0 1 27 41" stroke="#0a3553" stroke-width="3.2" fill="none" stroke-linecap="round" stroke-linejoin="round"/><path d="M33 26 A8 8 0 0 1 33 38" stroke="#0a3553" stroke-width="3.2" fill="none" stroke-linecap="round" stroke-linejoin="round"/><circle cx="24" cy="32" r="2.2" fill="#0a3553" stroke="none"/><line x1="9" y1="9" x2="55" y2="55" stroke="#ff2d2d" stroke-width="4" stroke-linecap="round"/><line x1="55" y1="9" x2="9" y2="55" stroke="#ff2d2d" stroke-width="4" stroke-linecap="round"/></g><text x="602" y="815" fill="#5e7d92" font-size="9">dom:Space</text></svg>