<svg xmlns="http://www.w3.org/2000/svg" width="1040" height="520" viewBox="0 0 1040 520" font-family="Inter,system-ui,Arial"><rect width="1040" height="520" fill="#0a1320"/><text x="20" y="30" fill="#cfe6f5" font-size="18" font-weight="700">Strike Sim — rebuilt Task Org cards (real milsymbol icons)</text><rect x="180" y="60" width="216" height="58" rx="9" fill="#10243a" stroke="#5fb0e6" stroke-width="1.6"/><text x="196" y="85" fill="#eef4fb" font-size="14" font-weight="700" letter-spacing="1">BLUE (US / ALLIED)</text><text x="196" y="103" fill="#8fa8c0" font-size="10.5">5 units · click to collapse</text><text x="382" y="92" text-anchor="end" fill="#5fb0e6" font-size="16">▾</text><rect x="180" y="150" width="216" height="58" rx="7" fill="#0d1825" stroke="#5fb0e6" stroke-width="1.4"/><rect x="180" y="150" width="4" height="58" rx="2" fill="#5fb0e6"/><svg x="188" y="160" xmlns="http://www.w3.org/2000/svg" version="1.2" baseProfile="tiny" width="60.04" height="41.04" viewBox="21 46 158 108"><path d="M25,50 l150,0 0,100 -150,0 z" stroke-width="4" stroke="black" fill="rgb(128,224,255)" fill-opacity="1" ></path><text x="100" y="103" text-anchor="middle" font-size="39" font-family="Arial" font-weight="bold" dominant-baseline="middle" stroke-width="3" stroke="none" fill="black" >CBT</text></svg><text x="236" y="171" fill="#eef4fb" font-size="12.5" font-weight="700">I Corps (Pacific Shield)…</text><text x="236" y="186" fill="#8fa8c0" font-size="10.5">Command · Land</text><rect x="236" y="193" width="146" height="5" rx="2.5" fill="#1b2a38"/><rect x="236" y="193" width="146" height="5" rx="2.5" fill="#46d57e"/><text x="384" y="171" text-anchor="end" fill="#ffd86b" font-size="10.5" font-weight="700">★ 10</text><path d="M210 208 V249 H160 V269" fill="none" stroke="#5fb0e6" stroke-width="1.5" opacity="0.45"/><rect x="100" y="240" width="216" height="58" rx="7" fill="#0d1825" stroke="#5fb0e6" stroke-width="1.4"/><rect x="100" y="240" width="4" height="58" rx="2" fill="#5fb0e6"/><svg x="108" y="250" xmlns="http://www.w3.org/2000/svg" version="1.2" baseProfile="tiny" width="60.04" height="41.04" viewBox="21 46 158 108"><path d="M25,50 l150,0 0,100 -150,0 z" stroke-width="4" stroke="black" fill="rgb(128,224,255)" fill-opacity="1" ></path><text x="100" y="103" text-anchor="middle" font-size="39" font-family="Arial" font-weight="bold" dominant-baseline="middle" stroke-width="3" stroke="none" fill="black" >CBT</text></svg><text x="156" y="261" fill="#eef4fb" font-size="12.5" font-weight="700">Long Range Sense and Str…</text><text x="156" y="276" fill="#8fa8c0" font-size="10.5">Command · Land</text><rect x="156" y="283" width="146" height="5" rx="2.5" fill="#1b2a38"/><rect x="156" y="283" width="93" height="5" rx="2.5" fill="#e8b54a"/><text x="304" y="261" text-anchor="end" fill="#ffd86b" font-size="10.5" font-weight="700">★ 10</text><path d="M210 208 V319 H160 V339" fill="none" stroke="#5fb0e6" stroke-width="1.5" opacity="0.45"/><rect x="100" y="310" width="216" height="58" rx="7" fill="#0d1825" stroke="#5fb0e6" stroke-width="1.4"/><rect x="100" y="310" width="4" height="58" rx="2" fill="#5fb0e6"/><svg x="108" y="320" xmlns="http://www.w3.org/2000/svg" version="1.2" baseProfile="tiny" width="60.04" height="41.04" viewBox="21 46 158 108"><path d="M25,50 l150,0 0,100 -150,0 z" stroke-width="4" stroke="black" fill="rgb(128,224,255)" fill-opacity="1" ></path><text x="100" y="103" text-anchor="middle" font-size="39" font-family="Arial" font-weight="bold" dominant-baseline="middle" stroke-width="3" stroke="none" fill="black" >CBT</text></svg><text x="156" y="331" fill="#eef4fb" font-size="12.5" font-weight="700">Medium Range Sense and S…</text><text x="156" y="346" fill="#8fa8c0" font-size="10.5">Command · Land</text><rect x="156" y="353" width="146" height="5" rx="2.5" fill="#1b2a38"/><rect x="156" y="353" width="146" height="5" rx="2.5" fill="#46d57e"/><text x="304" y="331" text-anchor="end" fill="#ffd86b" font-size="10.5" font-weight="700">★ 10</text><path d="M210 208 V389 H160 V409" fill="none" stroke="#5fb0e6" stroke-width="1.5" opacity="0.45"/><rect x="100" y="380" width="216" height="58" rx="7" fill="#0d1825" stroke="#5fb0e6" stroke-width="1.4"/><rect x="100" y="380" width="4" height="58" rx="2" fill="#5fb0e6"/><svg x="108" y="390" xmlns="http://www.w3.org/2000/svg" version="1.2" baseProfile="tiny" width="60.04" height="41.04" viewBox="21 46 158 108"><path d="M25,50 l150,0 0,100 -150,0 z" stroke-width="4" stroke="black" fill="rgb(128,224,255)" fill-opacity="1" ></path><text x="100" y="103" text-anchor="middle" font-size="39" font-family="Arial" font-weight="bold" dominant-baseline="middle" stroke-width="3" stroke="none" fill="black" >CBT</text></svg><text x="156" y="401" fill="#eef4fb" font-size="12.5" font-weight="700">Contested Sustainment Di…</text><text x="156" y="416" fill="#8fa8c0" font-size="10.5">Command · Land/Sea</text><rect x="156" y="423" width="146" height="5" rx="2.5" fill="#1b2a38"/><rect x="156" y="423" width="41" height="5" rx="2.5" fill="#e8584a"/><text x="304" y="401" text-anchor="end" fill="#ffd86b" font-size="10.5" font-weight="700">★ 9</text><path d="M210 208 V459 H160 V479" fill="none" stroke="#5fb0e6" stroke-width="1.5" opacity="0.45"/><rect x="100" y="450" width="216" height="58" rx="7" fill="#0d1825" stroke="#5fb0e6" stroke-width="1.4"/><rect x="100" y="450" width="4" height="58" rx="2" fill="#5fb0e6"/><svg x="108" y="460" xmlns="http://www.w3.org/2000/svg" version="1.2" baseProfile="tiny" width="60.04" height="41.04" viewBox="21 46 158 108"><path d="M25,50 l150,0 0,100 -150,0 z" stroke-width="4" stroke="black" fill="rgb(128,224,255)" fill-opacity="1" ></path><text x="100" y="103" text-anchor="middle" font-size="39" font-family="Arial" font-weight="bold" dominant-baseline="middle" stroke-width="3" stroke="none" fill="black" >CBT</text></svg><text x="156" y="471" fill="#eef4fb" font-size="12.5" font-weight="700">Counter C2 Brigade HQ – …</text><text x="156" y="486" fill="#8fa8c0" font-size="10.5">Command · Land/Cyber/EW</text><rect x="156" y="493" width="146" height="5" rx="2.5" fill="#1b2a38"/><rect x="156" y="493" width="128" height="5" rx="2.5" fill="#46d57e"/><text x="304" y="471" text-anchor="end" fill="#ffd86b" font-size="10.5" font-weight="700">★ 9</text><rect x="700" y="60" width="216" height="58" rx="9" fill="#241218" stroke="#e2685c" stroke-width="1.6"/><text x="716" y="85" fill="#eef4fb" font-size="14" font-weight="700" letter-spacing="1">RED (PLA)</text><text x="716" y="103" fill="#8fa8c0" font-size="10.5">5 units · click to collapse</text><text x="902" y="92" text-anchor="end" fill="#e2685c" font-size="16">▾</text><rect x="700" y="150" width="216" height="58" rx="7" fill="#0d1825" stroke="#e2685c" stroke-width="1.4"/><rect x="700" y="150" width="4" height="58" rx="2" fill="#e2685c"/><svg x="708" y="160" xmlns="http://www.w3.org/2000/svg" version="1.2" baseProfile="tiny" width="57.76" height="57.76" viewBox="24 24 152 152"><path d="M 100,28 L172,100 100,172 28,100 100,28 Z" stroke-width="4" stroke="black" fill="rgb(255,128,128)" fill-opacity="1" ></path><text x="100" y="103" text-anchor="middle" font-size="39" font-family="Arial" font-weight="bold" dominant-baseline="middle" stroke-width="3" stroke="none" fill="black" >CBT</text></svg><text x="756" y="171" fill="#eef4fb" font-size="12.5" font-weight="700">CMC Joint Operations Com…</text><text x="756" y="186" fill="#8fa8c0" font-size="10.5">Command · Land</text><rect x="756" y="193" width="146" height="5" rx="2.5" fill="#1b2a38"/><rect x="756" y="193" width="146" height="5" rx="2.5" fill="#46d57e"/><text x="904" y="171" text-anchor="end" fill="#ffd86b" font-size="10.5" font-weight="700">★ 10</text><path d="M730 208 V249 H680 V269" fill="none" stroke="#e2685c" stroke-width="1.5" opacity="0.45"/><rect x="620" y="240" width="216" height="58" rx="7" fill="#0d1825" stroke="#e2685c" stroke-width="1.4"/><rect x="620" y="240" width="4" height="58" rx="2" fill="#e2685c"/><svg x="628" y="250" xmlns="http://www.w3.org/2000/svg" version="1.2" baseProfile="tiny" width="57.76" height="57.76" viewBox="24 24 152 152"><path d="M 100,28 L172,100 100,172 28,100 100,28 Z" stroke-width="4" stroke="black" fill="rgb(255,128,128)" fill-opacity="1" ></path><text x="100" y="103" text-anchor="middle" font-size="39" font-family="Arial" font-weight="bold" dominant-baseline="middle" stroke-width="3" stroke="none" fill="black" >CBT</text></svg><text x="676" y="261" fill="#eef4fb" font-size="12.5" font-weight="700">Eastern Theater Command …</text><text x="676" y="276" fill="#8fa8c0" font-size="10.5">Command · Land</text><rect x="676" y="283" width="146" height="5" rx="2.5" fill="#1b2a38"/><rect x="676" y="283" width="93" height="5" rx="2.5" fill="#e8b54a"/><text x="824" y="261" text-anchor="end" fill="#ffd86b" font-size="10.5" font-weight="700">★ 10</text><path d="M730 208 V319 H680 V339" fill="none" stroke="#e2685c" stroke-width="1.5" opacity="0.45"/><rect x="620" y="310" width="216" height="58" rx="7" fill="#0d1825" stroke="#e2685c" stroke-width="1.4"/><rect x="620" y="310" width="4" height="58" rx="2" fill="#e2685c"/><svg x="628" y="320" xmlns="http://www.w3.org/2000/svg" version="1.2" baseProfile="tiny" width="57.76" height="57.76" viewBox="24 24 152 152"><path d="M 100,28 L172,100 100,172 28,100 100,28 Z" stroke-width="4" stroke="black" fill="rgb(255,128,128)" fill-opacity="1" ></path><text x="100" y="103" text-anchor="middle" font-size="39" font-family="Arial" font-weight="bold" dominant-baseline="middle" stroke-width="3" stroke="none" fill="black" >CBT</text></svg><text x="676" y="331" fill="#eef4fb" font-size="12.5" font-weight="700">Southern Theater Command…</text><text x="676" y="346" fill="#8fa8c0" font-size="10.5">Command · Land</text><rect x="676" y="353" width="146" height="5" rx="2.5" fill="#1b2a38"/><rect x="676" y="353" width="146" height="5" rx="2.5" fill="#46d57e"/><text x="824" y="331" text-anchor="end" fill="#ffd86b" font-size="10.5" font-weight="700">★ 9</text><path d="M730 208 V389 H680 V409" fill="none" stroke="#e2685c" stroke-width="1.5" opacity="0.45"/><rect x="620" y="380" width="216" height="58" rx="7" fill="#0d1825" stroke="#e2685c" stroke-width="1.4"/><rect x="620" y="380" width="4" height="58" rx="2" fill="#e2685c"/><svg x="628" y="390" xmlns="http://www.w3.org/2000/svg" version="1.2" baseProfile="tiny" width="57.76" height="57.76" viewBox="24 24 152 152"><path d="M 100,28 L172,100 100,172 28,100 100,28 Z" stroke-width="4" stroke="black" fill="rgb(255,128,128)" fill-opacity="1" ></path><text x="100" y="103" text-anchor="middle" font-size="39" font-family="Arial" font-weight="bold" dominant-baseline="middle" stroke-width="3" stroke="none" fill="black" >CBT</text></svg><text x="676" y="401" fill="#eef4fb" font-size="12.5" font-weight="700">Eastern TC Army HQ Nanji…</text><text x="676" y="416" fill="#8fa8c0" font-size="10.5">Command · Land</text><rect x="676" y="423" width="146" height="5" rx="2.5" fill="#1b2a38"/><rect x="676" y="423" width="41" height="5" rx="2.5" fill="#e8584a"/><text x="824" y="401" text-anchor="end" fill="#ffd86b" font-size="10.5" font-weight="700">★ 8</text><path d="M730 208 V459 H680 V479" fill="none" stroke="#e2685c" stroke-width="1.5" opacity="0.45"/><rect x="620" y="450" width="216" height="58" rx="7" fill="#0d1825" stroke="#e2685c" stroke-width="1.4"/><rect x="620" y="450" width="4" height="58" rx="2" fill="#e2685c"/><svg x="628" y="460" xmlns="http://www.w3.org/2000/svg" version="1.2" baseProfile="tiny" width="57.76" height="57.76" viewBox="24 24 152 152"><path d="M 100,28 L172,100 100,172 28,100 100,28 Z" stroke-width="4" stroke="black" fill="rgb(255,128,128)" fill-opacity="1" ></path><text x="100" y="103" text-anchor="middle" font-size="39" font-family="Arial" font-weight="bold" dominant-baseline="middle" stroke-width="3" stroke="none" fill="black" >CBT</text></svg><text x="676" y="471" fill="#eef4fb" font-size="12.5" font-weight="700">Eastern TC Navy HQ Ningbo</text><text x="676" y="486" fill="#8fa8c0" font-size="10.5">Command · Sea</text><rect x="676" y="493" width="146" height="5" rx="2.5" fill="#1b2a38"/><rect x="676" y="493" width="128" height="5" rx="2.5" fill="#46d57e"/><text x="824" y="471" text-anchor="end" fill="#ffd86b" font-size="10.5" font-weight="700">★ 8</text></svg>